<?xml version="1.0" encoding="UTF-8" standalone="no"?>
<!DOCTYPE svg PUBLIC "-//W3C//DTD SVG 1.1//EN"
 "http://www.w3.org/Graphics/SVG/1.1/DTD/svg11.dtd">
<!-- Generated by graphviz version 2.44.1 (20200629.0800)
 -->
<!-- Pages: 1 -->
<svg width="1111pt" height="918pt"
 viewBox="0.00 0.00 1111.00 917.94" xmlns="http://www.w3.org/2000/svg" xmlns:xlink="http://www.w3.org/1999/xlink">
<g id="graph0" class="graph" transform="scale(1 1) rotate(0) translate(4 913.94)">
<polygon fill="white" stroke="transparent" points="-4,4 -4,-913.94 1107,-913.94 1107,4 -4,4"/>
<!-- SW0 -->
<g id="node1" class="node">
<title>SW0</title>
<ellipse fill="none" stroke="black" cx="814" cy="-857.95" rx="51.99" ry="51.99"/>
<text text-anchor="middle" x="814" y="-854.25" font-family="Times New Roman,serif" font-size="14.00">SW0 (SW)</text>
</g>
<!-- SW3 -->
<g id="node4" class="node">
<title>SW3</title>
<ellipse fill="none" stroke="black" cx="609" cy="-717.96" rx="51.99" ry="51.99"/>
<text text-anchor="middle" x="609" y="-714.26" font-family="Times New Roman,serif" font-size="14.00">SW3 (SW)</text>
</g>
<!-- SW0&#45;&gt;SW3 -->
<g id="edge10" class="edge">
<title>SW0&#45;&gt;SW3</title>
<path fill="none" stroke="black" d="M769.52,-830.67C736.74,-809.62 692.27,-779.83 658.39,-756.3"/>
<polygon fill="black" stroke="black" points="660.23,-753.31 650.03,-750.46 656.23,-759.05 660.23,-753.31"/>
</g>
<!-- SW4 -->
<g id="node5" class="node">
<title>SW4</title>
<ellipse fill="none" stroke="black" cx="782" cy="-437.98" rx="51.99" ry="51.99"/>
<text text-anchor="middle" x="782" y="-434.28" font-family="Times New Roman,serif" font-size="14.00">SW4 (SW)</text>
</g>
<!-- SW0&#45;&gt;SW4 -->
<g id="edge9" class="edge">
<title>SW0&#45;&gt;SW4</title>
<path fill="none" stroke="black" d="M813.69,-805.69C817.18,-740.19 823.89,-623.61 806,-525.97 804.29,-516.66 801.63,-507.04 798.66,-497.76"/>
<polygon fill="black" stroke="black" points="801.96,-496.6 795.47,-488.23 795.32,-498.82 801.96,-496.6"/>
</g>
<!-- SW7 -->
<g id="node8" class="node">
<title>SW7</title>
<ellipse fill="none" stroke="black" cx="754" cy="-577.97" rx="51.99" ry="51.99"/>
<text text-anchor="middle" x="754" y="-574.27" font-family="Times New Roman,serif" font-size="14.00">SW7 (SW)</text>
</g>
<!-- SW0&#45;&gt;SW7 -->
<g id="edge11" class="edge">
<title>SW0&#45;&gt;SW7</title>
<path fill="none" stroke="black" d="M798.2,-808.21C786.3,-761.45 770.88,-690.68 761.5,-640.15"/>
<polygon fill="black" stroke="black" points="764.88,-639.21 759.65,-630.01 758,-640.47 764.88,-639.21"/>
</g>
<!-- ES1 -->
<g id="node10" class="node">
<title>ES1</title>
<polygon fill="none" stroke="black" points="695,-280.48 695,-349.48 1103,-349.48 1103,-280.48 695,-280.48"/>
<text text-anchor="middle" x="899" y="-334.28" font-family="Times New Roman,serif" font-size="14.00">ES1 (ES)</text>
<polyline fill="none" stroke="black" points="695,-326.48 1103,-326.48 "/>
<text text-anchor="middle" x="753.5" y="-311.28" font-family="Times New Roman,serif" font-size="14.00">Task_FreeApp1</text>
<polyline fill="none" stroke="black" points="812,-303.48 812,-326.48 "/>
<text text-anchor="middle" x="884.5" y="-311.28" font-family="Times New Roman,serif" font-size="14.00">Task_CommApp0_0</text>
<polyline fill="none" stroke="black" points="957,-303.48 957,-326.48 "/>
<text text-anchor="middle" x="1030" y="-311.28" font-family="Times New Roman,serif" font-size="14.00">Task_CommApp1_4</text>
<polyline fill="none" stroke="black" points="695,-303.48 1103,-303.48 "/>
<text text-anchor="middle" x="763" y="-288.28" font-family="Times New Roman,serif" font-size="14.00">Task_CommApp1_5</text>
<polyline fill="none" stroke="black" points="831,-280.48 831,-303.48 "/>
<text text-anchor="middle" x="899" y="-288.28" font-family="Times New Roman,serif" font-size="14.00">Task_CommApp1_6</text>
<polyline fill="none" stroke="black" points="967,-280.48 967,-303.48 "/>
<text text-anchor="middle" x="1035" y="-288.28" font-family="Times New Roman,serif" font-size="14.00">Task_CommApp1_8</text>
</g>
<!-- SW0&#45;&gt;ES1 -->
<g id="edge12" class="edge">
<title>SW0&#45;&gt;ES1</title>
<path fill="none" stroke="black" d="M827.14,-807.53C831.51,-795.44 835.92,-782.39 839,-769.95 875.41,-622.58 885.88,-441.8 892.61,-359.96"/>
<polygon fill="black" stroke="black" points="896.14,-359.8 893.5,-349.54 889.16,-359.21 896.14,-359.8"/>
</g>
<!-- SW1 -->
<g id="node2" class="node">
<title>SW1</title>
<ellipse fill="none" stroke="black" cx="214" cy="-577.97" rx="51.99" ry="51.99"/>
<text text-anchor="middle" x="214" y="-574.27" font-family="Times New Roman,serif" font-size="14.00">SW1 (SW)</text>
</g>
<!-- SW2 -->
<g id="node3" class="node">
<title>SW2</title>
<ellipse fill="none" stroke="black" cx="459" cy="-437.98" rx="51.99" ry="51.99"/>
<text text-anchor="middle" x="459" y="-434.28" font-family="Times New Roman,serif" font-size="14.00">SW2 (SW)</text>
</g>
<!-- SW1&#45;&gt;SW2 -->
<g id="edge16" class="edge">
<title>SW1&#45;&gt;SW2</title>
<path fill="none" stroke="black" d="M257.46,-549.37C298.3,-525.46 359.44,-491.02 403.72,-466.98"/>
<polygon fill="black" stroke="black" points="405.49,-470.01 412.62,-462.17 402.16,-463.85 405.49,-470.01"/>
</g>
<!-- SW1&#45;&gt;SW3 -->
<g id="edge13" class="edge">
<title>SW1&#45;&gt;SW3</title>
<path fill="none" stroke="black" d="M263.28,-594.62C336.37,-619.18 472.98,-666.83 550.85,-694.86"/>
<polygon fill="black" stroke="black" points="549.92,-698.25 560.51,-698.35 552.29,-691.66 549.92,-698.25"/>
</g>
<!-- SW5 -->
<g id="node6" class="node">
<title>SW5</title>
<ellipse fill="none" stroke="black" cx="373" cy="-191.99" rx="51.99" ry="51.99"/>
<text text-anchor="middle" x="373" y="-188.29" font-family="Times New Roman,serif" font-size="14.00">SW5 (SW)</text>
</g>
<!-- SW1&#45;&gt;SW5 -->
<g id="edge15" class="edge">
<title>SW1&#45;&gt;SW5</title>
<path fill="none" stroke="black" d="M197.03,-528.8C183.01,-466.57 172.91,-357.07 219,-279.98 239.51,-245.66 279.24,-223.24 313.28,-209.76"/>
<polygon fill="black" stroke="black" points="314.6,-213.01 322.71,-206.2 312.12,-206.46 314.6,-213.01"/>
</g>
<!-- SW6 -->
<g id="node7" class="node">
<title>SW6</title>
<ellipse fill="none" stroke="black" cx="52" cy="-52" rx="51.99" ry="51.99"/>
<text text-anchor="middle" x="52" y="-48.3" font-family="Times New Roman,serif" font-size="14.00">SW6 (SW)</text>
</g>
<!-- SW1&#45;&gt;SW6 -->
<g id="edge14" class="edge">
<title>SW1&#45;&gt;SW6</title>
<path fill="none" stroke="black" d="M195.09,-529.08C162.03,-433.14 95.26,-217.62 65.97,-112.68"/>
<polygon fill="black" stroke="black" points="69.29,-111.58 63.25,-102.87 62.55,-113.44 69.29,-111.58"/>
</g>
<!-- SW2&#45;&gt;SW1 -->
<g id="edge17" class="edge">
<title>SW2&#45;&gt;SW1</title>
<path fill="none" stroke="black" d="M415.36,-466.67C374.46,-490.62 313.31,-525.06 269.08,-549.07"/>
<polygon fill="black" stroke="black" points="267.33,-546.04 260.19,-553.87 270.66,-552.19 267.33,-546.04"/>
</g>
<!-- SW2&#45;&gt;SW3 -->
<g id="edge19" class="edge">
<title>SW2&#45;&gt;SW3</title>
<path fill="none" stroke="black" d="M487.13,-481.79C515.11,-529.75 557.33,-607.67 584.12,-660.56"/>
<polygon fill="black" stroke="black" points="581.15,-662.44 588.77,-669.8 587.4,-659.3 581.15,-662.44"/>
</g>
<!-- SW2&#45;&gt;SW5 -->
<g id="edge18" class="edge">
<title>SW2&#45;&gt;SW5</title>
<path fill="none" stroke="black" d="M487.46,-394.07C508.4,-361.58 529.65,-316.47 509,-279.98 491.9,-249.78 459.67,-228.93 430.82,-215.22"/>
<polygon fill="black" stroke="black" points="432.15,-211.98 421.6,-211.02 429.25,-218.35 432.15,-211.98"/>
</g>
<!-- ES0 -->
<g id="node9" class="node">
<title>ES0</title>
<polygon fill="none" stroke="black" points="122,-29 122,-75 394,-75 394,-29 122,-29"/>
<text text-anchor="middle" x="258" y="-59.8" font-family="Times New Roman,serif" font-size="14.00">ES0 (ES)</text>
<polyline fill="none" stroke="black" points="122,-52 394,-52 "/>
<text text-anchor="middle" x="190" y="-36.8" font-family="Times New Roman,serif" font-size="14.00">Task_CommApp1_2</text>
<polyline fill="none" stroke="black" points="258,-29 258,-52 "/>
<text text-anchor="middle" x="326" y="-36.8" font-family="Times New Roman,serif" font-size="14.00">Task_CommApp1_3</text>
</g>
<!-- SW2&#45;&gt;ES0 -->
<g id="edge20" class="edge">
<title>SW2&#45;&gt;ES0</title>
<path fill="none" stroke="black" d="M406.98,-434.5C349.75,-428.81 260.69,-410.24 219,-349.98 162.43,-268.24 207.48,-142.25 237.41,-84.22"/>
<polygon fill="black" stroke="black" points="240.61,-85.65 242.24,-75.18 234.44,-82.35 240.61,-85.65"/>
</g>
<!-- ES2 -->
<g id="node11" class="node">
<title>ES2</title>
<polygon fill="none" stroke="black" points="412,-29 412,-75 792,-75 792,-29 412,-29"/>
<text text-anchor="middle" x="602" y="-59.8" font-family="Times New Roman,serif" font-size="14.00">ES2 (ES)</text>
<polyline fill="none" stroke="black" points="412,-52 792,-52 "/>
<text text-anchor="middle" x="466" y="-36.8" font-family="Times New Roman,serif" font-size="14.00">Task_FreeApp0</text>
<polyline fill="none" stroke="black" points="520,-29 520,-52 "/>
<text text-anchor="middle" x="588" y="-36.8" font-family="Times New Roman,serif" font-size="14.00">Task_CommApp1_0</text>
<polyline fill="none" stroke="black" points="656,-29 656,-52 "/>
<text text-anchor="middle" x="724" y="-36.8" font-family="Times New Roman,serif" font-size="14.00">Task_CommApp1_1</text>
</g>
<!-- SW2&#45;&gt;ES2 -->
<g id="edge21" class="edge">
<title>SW2&#45;&gt;ES2</title>
<path fill="none" stroke="black" d="M496.09,-401.32C510.94,-386.97 526.82,-369.25 537,-349.98 583.26,-262.37 591.74,-142.42 596.62,-85.51"/>
<polygon fill="black" stroke="black" points="600.13,-85.59 597.53,-75.32 593.16,-84.97 600.13,-85.59"/>
</g>
<!-- ES3 -->
<g id="node12" class="node">
<title>ES3</title>
<polygon fill="none" stroke="black" points="237,-291.98 237,-337.98 509,-337.98 509,-291.98 237,-291.98"/>
<text text-anchor="middle" x="373" y="-322.78" font-family="Times New Roman,serif" font-size="14.00">ES3 (ES)</text>
<polyline fill="none" stroke="black" points="237,-314.98 509,-314.98 "/>
<text text-anchor="middle" x="305" y="-299.78" font-family="Times New Roman,serif" font-size="14.00">Task_CommApp0_1</text>
<polyline fill="none" stroke="black" points="373,-291.98 373,-314.98 "/>
<text text-anchor="middle" x="441" y="-299.78" font-family="Times New Roman,serif" font-size="14.00">Task_CommApp1_7</text>
</g>
<!-- SW2&#45;&gt;ES3 -->
<g id="edge22" class="edge">
<title>SW2&#45;&gt;ES3</title>
<path fill="none" stroke="black" d="M425.21,-398.36C412.72,-381.71 399.2,-362.5 388.95,-346.83"/>
<polygon fill="black" stroke="black" points="391.67,-344.58 383.33,-338.05 385.77,-348.36 391.67,-344.58"/>
</g>
<!-- SW3&#45;&gt;SW0 -->
<g id="edge23" class="edge">
<title>SW3&#45;&gt;SW0</title>
<path fill="none" stroke="black" d="M653.53,-745.28C686.39,-766.38 730.98,-796.26 764.87,-819.8"/>
<polygon fill="black" stroke="black" points="763.03,-822.79 773.24,-825.64 767.04,-817.04 763.03,-822.79"/>
</g>
<!-- SW3&#45;&gt;SW1 -->
<g id="edge24" class="edge">
<title>SW3&#45;&gt;SW1</title>
<path fill="none" stroke="black" d="M559.59,-701.26C486.4,-676.67 349.69,-628.99 271.9,-600.98"/>
<polygon fill="black" stroke="black" points="272.85,-597.6 262.25,-597.5 270.47,-604.18 272.85,-597.6"/>
</g>
<!-- SW3&#45;&gt;SW2 -->
<g id="edge25" class="edge">
<title>SW3&#45;&gt;SW2</title>
<path fill="none" stroke="black" d="M580.85,-674.13C552.86,-626.15 510.61,-548.17 483.83,-495.28"/>
<polygon fill="black" stroke="black" points="486.8,-493.4 479.18,-486.04 480.54,-496.54 486.8,-493.4"/>
</g>
<!-- SW3&#45;&gt;SW4 -->
<g id="edge26" class="edge">
<title>SW3&#45;&gt;SW4</title>
<path fill="none" stroke="black" d="M617.93,-666.38C630.49,-626.23 653.69,-569.75 684,-525.97 697.01,-507.18 714.47,-489.06 731.11,-474.27"/>
<polygon fill="black" stroke="black" points="733.41,-476.91 738.68,-467.72 728.82,-471.61 733.41,-476.91"/>
</g>
<!-- SW3&#45;&gt;SW5 -->
<g id="edge27" class="edge">
<title>SW3&#45;&gt;SW5</title>
<path fill="none" stroke="black" d="M610.39,-665.95C615.69,-578.25 621.31,-397.08 537,-279.98 511.86,-245.07 468.62,-223.32 432.79,-210.3"/>
<polygon fill="black" stroke="black" points="433.49,-206.84 422.9,-206.86 431.19,-213.45 433.49,-206.84"/>
</g>
<!-- SW3&#45;&gt;SW6 -->
<g id="edge28" class="edge">
<title>SW3&#45;&gt;SW6</title>
<path fill="none" stroke="black" d="M557.14,-712.72C450.27,-702.75 210.47,-675.18 144,-629.96 60.91,-573.45 23,-539.46 23,-438.98 23,-438.98 23,-438.98 23,-313.98 23,-244.75 30.08,-165.49 37.71,-112.66"/>
<polygon fill="black" stroke="black" points="41.22,-112.87 39.24,-102.46 34.3,-111.83 41.22,-112.87"/>
</g>
<!-- SW3&#45;&gt;SW7 -->
<g id="edge29" class="edge">
<title>SW3&#45;&gt;SW7</title>
<path fill="none" stroke="black" d="M643.26,-678.52C662.22,-659.7 685.98,-637.08 706.66,-618.15"/>
<polygon fill="black" stroke="black" points="709.08,-620.68 714.13,-611.37 704.38,-615.5 709.08,-620.68"/>
</g>
<!-- SW4&#45;&gt;SW0 -->
<g id="edge30" class="edge">
<title>SW4&#45;&gt;SW0</title>
<path fill="none" stroke="black" d="M810.37,-481.9C816.19,-495.67 821.29,-511.2 824,-525.97 841.14,-619.52 835.7,-730.44 827.28,-797.18"/>
<polygon fill="black" stroke="black" points="823.81,-796.73 825.96,-807.1 830.75,-797.65 823.81,-796.73"/>
</g>
<!-- SW4&#45;&gt;SW3 -->
<g id="edge31" class="edge">
<title>SW4&#45;&gt;SW3</title>
<path fill="none" stroke="black" d="M746.17,-475.87C731.22,-490.36 714.54,-507.85 702,-525.97 673.04,-567.79 650.58,-621.2 634.71,-660.9"/>
<polygon fill="black" stroke="black" points="631.37,-659.84 630.92,-670.42 637.87,-662.42 631.37,-659.84"/>
</g>
<!-- SW4&#45;&gt;SW7 -->
<g id="edge32" class="edge">
<title>SW4&#45;&gt;SW7</title>
<path fill="none" stroke="black" d="M778.19,-489.99C776.52,-499.29 774.58,-509.06 772.53,-518.55"/>
<polygon fill="black" stroke="black" points="769.11,-517.8 770.35,-528.32 775.94,-519.32 769.11,-517.8"/>
</g>
<!-- SW4&#45;&gt;ES1 -->
<g id="edge33" class="edge">
<title>SW4&#45;&gt;ES1</title>
<path fill="none" stroke="black" d="M814.24,-397.02C826.24,-384.13 840.06,-369.82 853.04,-356.86"/>
<polygon fill="black" stroke="black" points="855.51,-359.35 860.14,-349.82 850.58,-354.37 855.51,-359.35"/>
</g>
<!-- SW5&#45;&gt;SW1 -->
<g id="edge34" class="edge">
<title>SW5&#45;&gt;SW1</title>
<path fill="none" stroke="black" d="M324.6,-211.5C293.95,-225.13 256.65,-247.1 237,-279.98 193.97,-351.96 199.92,-452.18 207.7,-515.82"/>
<polygon fill="black" stroke="black" points="204.28,-516.62 209.01,-526.09 211.22,-515.73 204.28,-516.62"/>
</g>
<!-- SW5&#45;&gt;SW2 -->
<g id="edge35" class="edge">
<title>SW5&#45;&gt;SW2</title>
<path fill="none" stroke="black" d="M423.38,-205.8C459.55,-218.54 505.37,-241.79 527,-279.98 547.56,-316.3 526.59,-361.18 502.58,-393.63"/>
<polygon fill="black" stroke="black" points="499.77,-391.55 496.43,-401.6 505.31,-395.82 499.77,-391.55"/>
</g>
<!-- SW5&#45;&gt;SW3 -->
<g id="edge36" class="edge">
<title>SW5&#45;&gt;SW3</title>
<path fill="none" stroke="black" d="M424.09,-202.85C466.44,-214.28 524.25,-237.28 555,-279.98 636.61,-393.33 633.95,-566.72 622.4,-657.25"/>
<polygon fill="black" stroke="black" points="618.91,-656.96 621.03,-667.34 625.85,-657.9 618.91,-656.96"/>
</g>
<!-- SW5&#45;&gt;SW6 -->
<g id="edge37" class="edge">
<title>SW5&#45;&gt;SW6</title>
<path fill="none" stroke="black" d="M321.74,-181.38C265.57,-168.73 174.42,-143.35 104,-103.99 100.57,-102.08 97.15,-99.96 93.79,-97.7"/>
<polygon fill="black" stroke="black" points="95.78,-94.82 85.61,-91.86 91.71,-100.52 95.78,-94.82"/>
</g>
<!-- SW5&#45;&gt;ES0 -->
<g id="edge38" class="edge">
<title>SW5&#45;&gt;ES0</title>
<path fill="none" stroke="black" d="M336.44,-154.37C316.91,-132.19 293.73,-104.25 277.56,-83.32"/>
<polygon fill="black" stroke="black" points="280.15,-80.93 271.31,-75.1 274.58,-85.17 280.15,-80.93"/>
</g>
<!-- SW5&#45;&gt;ES2 -->
<g id="edge39" class="edge">
<title>SW5&#45;&gt;ES2</title>
<path fill="none" stroke="black" d="M415.66,-161.89C454.21,-137.73 510.86,-103.62 551.62,-80.04"/>
<polygon fill="black" stroke="black" points="553.41,-83.05 560.33,-75.03 549.91,-76.99 553.41,-83.05"/>
</g>
<!-- SW5&#45;&gt;ES3 -->
<g id="edge40" class="edge">
<title>SW5&#45;&gt;ES3</title>
<path fill="none" stroke="black" d="M379.67,-243.65C379.88,-256.51 379.67,-269.98 379.05,-281.65"/>
<polygon fill="black" stroke="black" points="375.54,-281.57 378.36,-291.79 382.53,-282.05 375.54,-281.57"/>
</g>
<!-- SW6&#45;&gt;SW1 -->
<g id="edge41" class="edge">
<title>SW6&#45;&gt;SW1</title>
<path fill="none" stroke="black" d="M70.87,-100.8C103.89,-196.59 170.56,-411.8 199.92,-516.91"/>
<polygon fill="black" stroke="black" points="196.6,-518.03 202.64,-526.73 203.34,-516.16 196.6,-518.03"/>
</g>
<!-- SW6&#45;&gt;SW3 -->
<g id="edge42" class="edge">
<title>SW6&#45;&gt;SW3</title>
<path fill="none" stroke="black" d="M52.5,-104.41C48.86,-156.98 41,-241.05 41,-313.98 41,-438.98 41,-438.98 41,-438.98 41,-539.46 78.91,-573.45 162,-629.96 224.37,-672.39 439.38,-699.29 546.91,-710.68"/>
<polygon fill="black" stroke="black" points="546.66,-714.17 556.97,-711.73 547.39,-707.21 546.66,-714.17"/>
</g>
<!-- SW6&#45;&gt;SW5 -->
<g id="edge43" class="edge">
<title>SW6&#45;&gt;SW5</title>
<path fill="none" stroke="black" d="M93.24,-83.99C102.31,-91.25 112.11,-98.47 122,-103.99 183.28,-138.24 260.25,-161.9 312.77,-175.81"/>
<polygon fill="black" stroke="black" points="312.05,-179.24 322.61,-178.37 313.82,-172.46 312.05,-179.24"/>
</g>
<!-- SW7&#45;&gt;SW0 -->
<g id="edge44" class="edge">
<title>SW7&#45;&gt;SW0</title>
<path fill="none" stroke="black" d="M769.81,-627.77C781.71,-674.55 797.13,-745.31 806.51,-795.83"/>
<polygon fill="black" stroke="black" points="803.12,-796.75 808.35,-805.96 810,-795.5 803.12,-796.75"/>
</g>
<!-- SW7&#45;&gt;SW3 -->
<g id="edge45" class="edge">
<title>SW7&#45;&gt;SW3</title>
<path fill="none" stroke="black" d="M719.83,-617.31C700.96,-636.05 677.3,-658.58 656.65,-677.47"/>
<polygon fill="black" stroke="black" points="654.24,-674.94 649.2,-684.26 658.95,-680.12 654.24,-674.94"/>
</g>
<!-- SW7&#45;&gt;SW4 -->
<g id="edge46" class="edge">
<title>SW7&#45;&gt;SW4</title>
<path fill="none" stroke="black" d="M757.8,-525.98C759.48,-516.63 761.42,-506.81 763.49,-497.27"/>
<polygon fill="black" stroke="black" points="766.92,-497.99 765.68,-487.47 760.08,-496.46 766.92,-497.99"/>
</g>
<!-- ES0&#45;&gt;SW2 -->
<g id="edge1" class="edge">
<title>ES0&#45;&gt;SW2</title>
<path fill="none" stroke="black" d="M251.33,-75.18C230.81,-128.09 177.28,-263.69 237,-349.98 273.12,-402.18 344.77,-423.1 397.01,-431.46"/>
<polygon fill="black" stroke="black" points="396.77,-434.96 407.18,-432.97 397.8,-428.04 396.77,-434.96"/>
</g>
<!-- ES0&#45;&gt;SW5 -->
<g id="edge2" class="edge">
<title>ES0&#45;&gt;SW5</title>
<path fill="none" stroke="black" d="M281.57,-75.15C297.76,-92.78 319.36,-118.14 337.56,-140.64"/>
<polygon fill="black" stroke="black" points="334.85,-142.85 343.84,-148.46 340.31,-138.47 334.85,-142.85"/>
</g>
<!-- ES1&#45;&gt;SW0 -->
<g id="edge3" class="edge">
<title>ES1&#45;&gt;SW0</title>
<path fill="none" stroke="black" d="M902.91,-349.54C904.77,-425.5 895.04,-615.96 857,-769.95 854.17,-781.39 850.21,-793.34 845.78,-804.6"/>
<polygon fill="black" stroke="black" points="842.54,-803.28 841.96,-813.86 849.01,-805.95 842.54,-803.28"/>
</g>
<!-- ES1&#45;&gt;SW4 -->
<g id="edge4" class="edge">
<title>ES1&#45;&gt;SW4</title>
<path fill="none" stroke="black" d="M872.47,-349.75C859.38,-364.02 843.29,-380.77 828.29,-395.75"/>
<polygon fill="black" stroke="black" points="825.67,-393.42 821.04,-402.95 830.6,-398.39 825.67,-393.42"/>
</g>
<!-- ES2&#45;&gt;SW2 -->
<g id="edge5" class="edge">
<title>ES2&#45;&gt;SW2</title>
<path fill="none" stroke="black" d="M606.82,-75.32C610.68,-126.83 604.25,-256.73 555,-349.98 544.36,-370.13 527.48,-388.59 510.76,-403.27"/>
<polygon fill="black" stroke="black" points="508.48,-400.61 503.11,-409.74 513,-405.96 508.48,-400.61"/>
</g>
<!-- ES2&#45;&gt;SW5 -->
<g id="edge6" class="edge">
<title>ES2&#45;&gt;SW5</title>
<path fill="none" stroke="black" d="M570.49,-75.06C533.58,-98.5 472.03,-135.69 427.39,-161.61"/>
<polygon fill="black" stroke="black" points="425.61,-158.6 418.7,-166.63 429.11,-164.66 425.61,-158.6"/>
</g>
<!-- ES3&#45;&gt;SW2 -->
<g id="edge7" class="edge">
<title>ES3&#45;&gt;SW2</title>
<path fill="none" stroke="black" d="M394.11,-338.15C404.36,-351.03 416.76,-367.84 428,-383.94"/>
<polygon fill="black" stroke="black" points="425.19,-386.03 433.76,-392.27 430.95,-382.05 425.19,-386.03"/>
</g>
<!-- ES3&#45;&gt;SW5 -->
<g id="edge8" class="edge">
<title>ES3&#45;&gt;SW5</title>
<path fill="none" stroke="black" d="M367.63,-291.79C366.72,-281.02 366.26,-267.51 366.25,-253.97"/>
<polygon fill="black" stroke="black" points="369.75,-253.67 366.33,-243.65 362.75,-253.62 369.75,-253.67"/>
</g>
</g>
</svg>
