<?xml version="1.0" encoding="UTF-8" standalone="no"?>
<!DOCTYPE svg PUBLIC "-//W3C//DTD SVG 1.1//EN"
 "http://www.w3.org/Graphics/SVG/1.1/DTD/svg11.dtd">
<!-- Generated by graphviz version 2.44.1 (20200629.0800)
 -->
<!-- Pages: 1 -->
<svg width="593pt" height="885pt"
 viewBox="0.00 0.00 592.50 884.94" xmlns="http://www.w3.org/2000/svg" xmlns:xlink="http://www.w3.org/1999/xlink">
<g id="graph0" class="graph" transform="scale(1 1) rotate(0) translate(4 880.94)">
<polygon fill="white" stroke="transparent" points="-4,4 -4,-880.94 588.5,-880.94 588.5,4 -4,4"/>
<!-- SW0 -->
<g id="node1" class="node">
<title>SW0</title>
<ellipse fill="none" stroke="black" cx="510" cy="-824.95" rx="51.99" ry="51.99"/>
<text text-anchor="middle" x="510" y="-821.25" font-family="Times New Roman,serif" font-size="14.00">SW0 (SW)</text>
</g>
<!-- SW3 -->
<g id="node4" class="node">
<title>SW3</title>
<ellipse fill="none" stroke="black" cx="305" cy="-684.96" rx="51.99" ry="51.99"/>
<text text-anchor="middle" x="305" y="-681.26" font-family="Times New Roman,serif" font-size="14.00">SW3 (SW)</text>
</g>
<!-- SW0&#45;&gt;SW3 -->
<g id="edge10" class="edge">
<title>SW0&#45;&gt;SW3</title>
<path fill="none" stroke="black" d="M465.52,-797.67C432.75,-776.62 388.27,-746.83 354.4,-723.3"/>
<polygon fill="black" stroke="black" points="356.23,-720.31 346.03,-717.46 352.23,-726.05 356.23,-720.31"/>
</g>
<!-- SW4 -->
<g id="node5" class="node">
<title>SW4</title>
<ellipse fill="none" stroke="black" cx="486" cy="-404.98" rx="51.99" ry="51.99"/>
<text text-anchor="middle" x="486" y="-401.28" font-family="Times New Roman,serif" font-size="14.00">SW4 (SW)</text>
</g>
<!-- SW0&#45;&gt;SW4 -->
<g id="edge9" class="edge">
<title>SW0&#45;&gt;SW4</title>
<path fill="none" stroke="black" d="M508.41,-772.89C510.55,-707.62 515.84,-591.27 502,-492.97 500.77,-484.27 498.89,-475.21 496.79,-466.37"/>
<polygon fill="black" stroke="black" points="500.15,-465.39 494.35,-456.52 493.35,-467.07 500.15,-465.39"/>
</g>
<!-- SW7 -->
<g id="node8" class="node">
<title>SW7</title>
<ellipse fill="none" stroke="black" cx="450" cy="-544.97" rx="51.99" ry="51.99"/>
<text text-anchor="middle" x="450" y="-541.27" font-family="Times New Roman,serif" font-size="14.00">SW7 (SW)</text>
</g>
<!-- SW0&#45;&gt;SW7 -->
<g id="edge11" class="edge">
<title>SW0&#45;&gt;SW7</title>
<path fill="none" stroke="black" d="M494.2,-775.21C482.3,-728.45 466.88,-657.68 457.5,-607.15"/>
<polygon fill="black" stroke="black" points="460.89,-606.21 455.65,-597.01 454,-607.47 460.89,-606.21"/>
</g>
<!-- ES1 -->
<g id="node10" class="node">
<title>ES1</title>
<polygon fill="none" stroke="black" points="515.5,-280.48 515.5,-316.48 584.5,-316.48 584.5,-280.48 515.5,-280.48"/>
<text text-anchor="middle" x="550" y="-294.78" font-family="Times New Roman,serif" font-size="14.00">ES1 (ES)</text>
</g>
<!-- SW0&#45;&gt;ES1 -->
<g id="edge12" class="edge">
<title>SW0&#45;&gt;ES1</title>
<path fill="none" stroke="black" d="M522.8,-774.15C526.81,-762.19 530.69,-749.29 533,-736.95 561.64,-584.23 549.62,-396.26 548.22,-326.88"/>
<polygon fill="black" stroke="black" points="551.72,-326.74 548.1,-316.78 544.72,-326.83 551.72,-326.74"/>
</g>
<!-- SW1 -->
<g id="node2" class="node">
<title>SW1</title>
<ellipse fill="none" stroke="black" cx="140" cy="-544.97" rx="51.99" ry="51.99"/>
<text text-anchor="middle" x="140" y="-541.27" font-family="Times New Roman,serif" font-size="14.00">SW1 (SW)</text>
</g>
<!-- SW2 -->
<g id="node3" class="node">
<title>SW2</title>
<ellipse fill="none" stroke="black" cx="249" cy="-404.98" rx="51.99" ry="51.99"/>
<text text-anchor="middle" x="249" y="-401.28" font-family="Times New Roman,serif" font-size="14.00">SW2 (SW)</text>
</g>
<!-- SW1&#45;&gt;SW2 -->
<g id="edge16" class="edge">
<title>SW1&#45;&gt;SW2</title>
<path fill="none" stroke="black" d="M167.87,-500.69C179.66,-485.07 193.58,-467.4 206.57,-451.6"/>
<polygon fill="black" stroke="black" points="209.58,-453.45 213.26,-443.52 204.19,-448.99 209.58,-453.45"/>
</g>
<!-- SW1&#45;&gt;SW3 -->
<g id="edge13" class="edge">
<title>SW1&#45;&gt;SW3</title>
<path fill="none" stroke="black" d="M181.7,-576.09C205.73,-595.2 235.85,-620.22 260.34,-641.35"/>
<polygon fill="black" stroke="black" points="258.24,-644.16 268.08,-648.06 262.82,-638.87 258.24,-644.16"/>
</g>
<!-- SW5 -->
<g id="node6" class="node">
<title>SW5</title>
<ellipse fill="none" stroke="black" cx="266" cy="-191.99" rx="51.99" ry="51.99"/>
<text text-anchor="middle" x="266" y="-188.29" font-family="Times New Roman,serif" font-size="14.00">SW5 (SW)</text>
</g>
<!-- SW1&#45;&gt;SW5 -->
<g id="edge15" class="edge">
<title>SW1&#45;&gt;SW5</title>
<path fill="none" stroke="black" d="M140.2,-492.75C146.47,-438.17 164.13,-350.13 196,-279.98 202.82,-264.96 212.33,-249.82 222.18,-236.47"/>
<polygon fill="black" stroke="black" points="225.05,-238.48 228.35,-228.41 219.49,-234.23 225.05,-238.48"/>
</g>
<!-- SW6 -->
<g id="node7" class="node">
<title>SW6</title>
<ellipse fill="none" stroke="black" cx="65" cy="-52" rx="51.99" ry="51.99"/>
<text text-anchor="middle" x="65" y="-48.3" font-family="Times New Roman,serif" font-size="14.00">SW6 (SW)</text>
</g>
<!-- SW1&#45;&gt;SW6 -->
<g id="edge14" class="edge">
<title>SW1&#45;&gt;SW6</title>
<path fill="none" stroke="black" d="M128.12,-494.19C111.12,-403.66 81.77,-212.35 69.69,-114.08"/>
<polygon fill="black" stroke="black" points="73.15,-113.52 68.47,-104.01 66.2,-114.36 73.15,-113.52"/>
</g>
<!-- SW2&#45;&gt;SW1 -->
<g id="edge17" class="edge">
<title>SW2&#45;&gt;SW1</title>
<path fill="none" stroke="black" d="M221.16,-449.21C209.33,-464.9 195.33,-482.65 182.29,-498.52"/>
<polygon fill="black" stroke="black" points="179.26,-496.69 175.57,-506.63 184.65,-501.16 179.26,-496.69"/>
</g>
<!-- SW2&#45;&gt;SW3 -->
<g id="edge19" class="edge">
<title>SW2&#45;&gt;SW3</title>
<path fill="none" stroke="black" d="M263.65,-455.27C271.33,-493.97 280.57,-549.13 291,-596.96 292.86,-605.5 295.01,-614.46 297.13,-623.26"/>
<polygon fill="black" stroke="black" points="293.76,-624.18 299.51,-633.08 300.56,-622.54 293.76,-624.18"/>
</g>
<!-- SW2&#45;&gt;SW5 -->
<g id="edge18" class="edge">
<title>SW2&#45;&gt;SW5</title>
<path fill="none" stroke="black" d="M268.53,-356.69C274.32,-344.19 279.86,-330.43 283,-316.98 287.9,-296 285.25,-272.92 280.6,-252.41"/>
<polygon fill="black" stroke="black" points="283.97,-251.45 278.18,-242.58 277.17,-253.12 283.97,-251.45"/>
</g>
<!-- ES0 -->
<g id="node9" class="node">
<title>ES0</title>
<polygon fill="none" stroke="black" points="170.5,-34 170.5,-70 239.5,-70 239.5,-34 170.5,-34"/>
<text text-anchor="middle" x="205" y="-48.3" font-family="Times New Roman,serif" font-size="14.00">ES0 (ES)</text>
</g>
<!-- SW2&#45;&gt;ES0 -->
<g id="edge20" class="edge">
<title>SW2&#45;&gt;ES0</title>
<path fill="none" stroke="black" d="M215.81,-364.77C207.5,-350.32 199.93,-333.45 196,-316.98 175.88,-232.64 185.5,-128.78 195.52,-80.32"/>
<polygon fill="black" stroke="black" points="199,-80.83 197.79,-70.3 192.17,-79.28 199,-80.83"/>
</g>
<!-- ES2 -->
<g id="node11" class="node">
<title>ES2</title>
<polygon fill="none" stroke="black" points="286.5,-34 286.5,-70 355.5,-70 355.5,-34 286.5,-34"/>
<text text-anchor="middle" x="321" y="-48.3" font-family="Times New Roman,serif" font-size="14.00">ES2 (ES)</text>
</g>
<!-- SW2&#45;&gt;ES2 -->
<g id="edge21" class="edge">
<title>SW2&#45;&gt;ES2</title>
<path fill="none" stroke="black" d="M279.93,-362.61C290.42,-349.03 301.14,-333.23 308,-316.98 341.92,-236.71 327.66,-130.07 321.77,-80.5"/>
<polygon fill="black" stroke="black" points="325.21,-79.8 320.6,-70.26 318.26,-80.6 325.21,-79.8"/>
</g>
<!-- ES3 -->
<g id="node12" class="node">
<title>ES3</title>
<polygon fill="none" stroke="black" points="214.5,-280.48 214.5,-316.48 283.5,-316.48 283.5,-280.48 214.5,-280.48"/>
<text text-anchor="middle" x="249" y="-294.78" font-family="Times New Roman,serif" font-size="14.00">ES3 (ES)</text>
</g>
<!-- SW2&#45;&gt;ES3 -->
<g id="edge22" class="edge">
<title>SW2&#45;&gt;ES3</title>
<path fill="none" stroke="black" d="M242.25,-353.26C242.22,-344.15 242.47,-334.97 242.98,-326.85"/>
<polygon fill="black" stroke="black" points="246.47,-327.12 243.82,-316.86 239.5,-326.54 246.47,-327.12"/>
</g>
<!-- SW3&#45;&gt;SW0 -->
<g id="edge23" class="edge">
<title>SW3&#45;&gt;SW0</title>
<path fill="none" stroke="black" d="M349.54,-712.28C382.4,-733.38 426.99,-763.26 460.87,-786.8"/>
<polygon fill="black" stroke="black" points="459.04,-789.79 469.24,-792.64 463.04,-784.04 459.04,-789.79"/>
</g>
<!-- SW3&#45;&gt;SW1 -->
<g id="edge24" class="edge">
<title>SW3&#45;&gt;SW1</title>
<path fill="none" stroke="black" d="M263.09,-653.68C239.07,-634.56 209.01,-609.59 184.57,-588.5"/>
<polygon fill="black" stroke="black" points="186.69,-585.71 176.85,-581.8 182.11,-591 186.69,-585.71"/>
</g>
<!-- SW3&#45;&gt;SW2 -->
<g id="edge25" class="edge">
<title>SW3&#45;&gt;SW2</title>
<path fill="none" stroke="black" d="M283.3,-637.64C279.48,-624.54 275.9,-610.24 273,-596.96 263.63,-553.99 255.22,-505.11 250.44,-467.56"/>
<polygon fill="black" stroke="black" points="253.87,-466.79 249.19,-457.28 246.92,-467.63 253.87,-466.79"/>
</g>
<!-- SW3&#45;&gt;SW4 -->
<g id="edge26" class="edge">
<title>SW3&#45;&gt;SW4</title>
<path fill="none" stroke="black" d="M313.3,-633.43C325.54,-593.05 348.65,-536.24 380,-492.97 394.63,-472.78 414.65,-453.84 433.43,-438.83"/>
<polygon fill="black" stroke="black" points="435.63,-441.54 441.37,-432.64 431.33,-436.02 435.63,-441.54"/>
</g>
<!-- SW3&#45;&gt;SW5 -->
<g id="edge27" class="edge">
<title>SW3&#45;&gt;SW5</title>
<path fill="none" stroke="black" d="M305,-632.66C310.12,-539.21 325.63,-344.9 308,-279.98 304.98,-268.87 300.15,-257.73 294.79,-247.31"/>
<polygon fill="black" stroke="black" points="297.8,-245.5 289.98,-238.35 291.63,-248.82 297.8,-245.5"/>
</g>
<!-- SW3&#45;&gt;SW6 -->
<g id="edge28" class="edge">
<title>SW3&#45;&gt;SW6</title>
<path fill="none" stroke="black" d="M253.4,-677.87C200.42,-668.78 119.24,-647.01 70,-596.96 6.59,-532.52 0,-496.38 0,-405.98 0,-405.98 0,-405.98 0,-297.48 0,-231.14 19.83,-157.18 37.79,-108.16"/>
<polygon fill="black" stroke="black" points="41.1,-109.29 41.35,-98.7 34.55,-106.82 41.1,-109.29"/>
</g>
<!-- SW3&#45;&gt;SW7 -->
<g id="edge29" class="edge">
<title>SW3&#45;&gt;SW7</title>
<path fill="none" stroke="black" d="M339.27,-645.52C358.22,-626.7 381.98,-604.08 402.67,-585.15"/>
<polygon fill="black" stroke="black" points="405.09,-587.68 410.13,-578.37 400.38,-582.5 405.09,-587.68"/>
</g>
<!-- SW4&#45;&gt;SW0 -->
<g id="edge30" class="edge">
<title>SW4&#45;&gt;SW0</title>
<path fill="none" stroke="black" d="M510.17,-451.06C514.43,-464.39 518.05,-479.12 520,-492.97 533.22,-586.82 528.99,-697.12 521.9,-763.72"/>
<polygon fill="black" stroke="black" points="518.38,-763.69 520.74,-774.02 525.34,-764.48 518.38,-763.69"/>
</g>
<!-- SW4&#45;&gt;SW3 -->
<g id="edge31" class="edge">
<title>SW4&#45;&gt;SW3</title>
<path fill="none" stroke="black" d="M447.97,-440.58C431.12,-455.3 412.07,-473.56 398,-492.97 367.99,-534.38 345.54,-588.21 329.92,-628.16"/>
<polygon fill="black" stroke="black" points="326.65,-626.89 326.29,-637.48 333.18,-629.43 326.65,-626.89"/>
</g>
<!-- SW4&#45;&gt;SW7 -->
<g id="edge32" class="edge">
<title>SW4&#45;&gt;SW7</title>
<path fill="none" stroke="black" d="M479.27,-456.85C476.96,-466.57 474.33,-476.81 471.6,-486.72"/>
<polygon fill="black" stroke="black" points="468.19,-485.9 468.84,-496.48 474.93,-487.81 468.19,-485.9"/>
</g>
<!-- SW4&#45;&gt;ES1 -->
<g id="edge33" class="edge">
<title>SW4&#45;&gt;ES1</title>
<path fill="none" stroke="black" d="M507.73,-357.54C514.44,-346.35 521.78,-334.81 528.48,-324.99"/>
<polygon fill="black" stroke="black" points="531.55,-326.71 534.42,-316.52 525.82,-322.69 531.55,-326.71"/>
</g>
<!-- SW5&#45;&gt;SW1 -->
<g id="edge34" class="edge">
<title>SW5&#45;&gt;SW1</title>
<path fill="none" stroke="black" d="M239.28,-236.67C230.23,-249.97 220.79,-265.03 214,-279.98 183.67,-346.73 166.22,-429.67 155.17,-484.57"/>
<polygon fill="black" stroke="black" points="151.72,-484 153.18,-494.49 158.58,-485.37 151.72,-484"/>
</g>
<!-- SW5&#45;&gt;SW2 -->
<g id="edge35" class="edge">
<title>SW5&#45;&gt;SW2</title>
<path fill="none" stroke="black" d="M292.54,-236.71C301.3,-260.5 307.21,-290.42 301,-316.98 297.98,-329.92 292.73,-343.15 286.66,-355.26"/>
<polygon fill="black" stroke="black" points="283.47,-353.8 281.88,-364.28 289.66,-357.08 283.47,-353.8"/>
</g>
<!-- SW5&#45;&gt;SW3 -->
<g id="edge36" class="edge">
<title>SW5&#45;&gt;SW3</title>
<path fill="none" stroke="black" d="M301.94,-229.99C311.92,-244.76 321.23,-262.41 326,-279.98 343.07,-342.87 329.06,-527.15 316.64,-623.57"/>
<polygon fill="black" stroke="black" points="313.13,-623.38 315.29,-633.75 320.07,-624.3 313.13,-623.38"/>
</g>
<!-- SW5&#45;&gt;SW6 -->
<g id="edge37" class="edge">
<title>SW5&#45;&gt;SW6</title>
<path fill="none" stroke="black" d="M221.79,-164.38C189.81,-143.44 146.72,-114 113.75,-90.65"/>
<polygon fill="black" stroke="black" points="115.78,-87.79 105.61,-84.85 111.72,-93.5 115.78,-87.79"/>
</g>
<!-- SW5&#45;&gt;ES0 -->
<g id="edge38" class="edge">
<title>SW5&#45;&gt;ES0</title>
<path fill="none" stroke="black" d="M240.01,-146.57C229.53,-124.53 218.38,-98.64 211.34,-79.69"/>
<polygon fill="black" stroke="black" points="214.61,-78.45 207.96,-70.2 208.02,-80.8 214.61,-78.45"/>
</g>
<!-- SW5&#45;&gt;ES2 -->
<g id="edge39" class="edge">
<title>SW5&#45;&gt;ES2</title>
<path fill="none" stroke="black" d="M279.2,-141.56C287.03,-120.55 296.81,-96.9 305.07,-79.33"/>
<polygon fill="black" stroke="black" points="308.26,-80.77 309.48,-70.24 301.96,-77.71 308.26,-80.77"/>
</g>
<!-- SW5&#45;&gt;ES3 -->
<g id="edge40" class="edge">
<title>SW5&#45;&gt;ES3</title>
<path fill="none" stroke="black" d="M264.43,-244.11C262.98,-253.17 261.25,-262.27 259.42,-270.33"/>
<polygon fill="black" stroke="black" points="255.98,-269.68 256.97,-280.23 262.77,-271.36 255.98,-269.68"/>
</g>
<!-- SW6&#45;&gt;SW1 -->
<g id="edge41" class="edge">
<title>SW6&#45;&gt;SW1</title>
<path fill="none" stroke="black" d="M76.91,-102.93C93.91,-193.49 123.21,-384.49 135.29,-482.74"/>
<polygon fill="black" stroke="black" points="131.83,-483.31 136.51,-492.81 138.78,-482.47 131.83,-483.31"/>
</g>
<!-- SW6&#45;&gt;SW3 -->
<g id="edge42" class="edge">
<title>SW6&#45;&gt;SW3</title>
<path fill="none" stroke="black" d="M53.55,-102.8C39.33,-151.68 18,-228.68 18,-297.48 18,-405.98 18,-405.98 18,-405.98 18,-496.38 24.59,-532.52 88,-596.96 130.12,-639.77 195.6,-661.89 243.69,-673.08"/>
<polygon fill="black" stroke="black" points="243.15,-676.55 253.67,-675.31 244.67,-669.72 243.15,-676.55"/>
</g>
<!-- SW6&#45;&gt;SW5 -->
<g id="edge43" class="edge">
<title>SW6&#45;&gt;SW5</title>
<path fill="none" stroke="black" d="M109.4,-79.72C141.16,-100.52 183.82,-129.66 216.63,-152.9"/>
<polygon fill="black" stroke="black" points="215,-156.04 225.18,-158.98 219.06,-150.33 215,-156.04"/>
</g>
<!-- SW7&#45;&gt;SW0 -->
<g id="edge44" class="edge">
<title>SW7&#45;&gt;SW0</title>
<path fill="none" stroke="black" d="M465.81,-594.77C477.72,-641.55 493.13,-712.31 502.51,-762.83"/>
<polygon fill="black" stroke="black" points="499.12,-763.75 504.36,-772.96 506.01,-762.5 499.12,-763.75"/>
</g>
<!-- SW7&#45;&gt;SW3 -->
<g id="edge45" class="edge">
<title>SW7&#45;&gt;SW3</title>
<path fill="none" stroke="black" d="M415.83,-584.31C396.96,-603.05 373.3,-625.58 352.66,-644.47"/>
<polygon fill="black" stroke="black" points="350.24,-641.94 345.2,-651.26 354.96,-647.12 350.24,-641.94"/>
</g>
<!-- SW7&#45;&gt;SW4 -->
<g id="edge46" class="edge">
<title>SW7&#45;&gt;SW4</title>
<path fill="none" stroke="black" d="M456.67,-493.37C458.96,-483.68 461.58,-473.46 464.31,-463.57"/>
<polygon fill="black" stroke="black" points="467.71,-464.39 467.06,-453.82 460.98,-462.49 467.71,-464.39"/>
</g>
<!-- ES0&#45;&gt;SW2 -->
<g id="edge1" class="edge">
<title>ES0&#45;&gt;SW2</title>
<path fill="none" stroke="black" d="M206.75,-70.3C205.13,-112.96 192.36,-226.26 214,-316.98 216.44,-327.21 220.29,-337.6 224.59,-347.47"/>
<polygon fill="black" stroke="black" points="221.49,-349.1 228.82,-356.75 227.86,-346.2 221.49,-349.1"/>
</g>
<!-- ES0&#45;&gt;SW5 -->
<g id="edge2" class="edge">
<title>ES0&#45;&gt;SW5</title>
<path fill="none" stroke="black" d="M217.15,-70.02C225.77,-85.73 237.19,-110 246.91,-132.69"/>
<polygon fill="black" stroke="black" points="243.7,-134.1 250.81,-141.95 250.15,-131.37 243.7,-134.1"/>
</g>
<!-- ES1&#45;&gt;SW0 -->
<g id="edge3" class="edge">
<title>ES1&#45;&gt;SW0</title>
<path fill="none" stroke="black" d="M555.36,-316.78C566.22,-376.04 581.17,-576.06 551,-736.95 548.89,-748.21 545.48,-759.93 541.46,-770.98"/>
<polygon fill="black" stroke="black" points="538.13,-769.91 537.79,-780.5 544.66,-772.43 538.13,-769.91"/>
</g>
<!-- ES1&#45;&gt;SW4 -->
<g id="edge4" class="edge">
<title>ES1&#45;&gt;SW4</title>
<path fill="none" stroke="black" d="M544.72,-316.48C539.46,-326.98 531.39,-341.02 522.87,-354.78"/>
<polygon fill="black" stroke="black" points="519.89,-352.95 517.53,-363.28 525.81,-356.67 519.89,-352.95"/>
</g>
<!-- ES2&#45;&gt;SW2 -->
<g id="edge5" class="edge">
<title>ES2&#45;&gt;SW2</title>
<path fill="none" stroke="black" d="M329.42,-70.26C343.23,-113.79 362.48,-230.64 326,-316.98 318.95,-333.66 307.85,-349.88 296.19,-363.7"/>
<polygon fill="black" stroke="black" points="293.26,-361.73 289.28,-371.55 298.52,-366.35 293.26,-361.73"/>
</g>
<!-- ES2&#45;&gt;SW5 -->
<g id="edge6" class="edge">
<title>ES2&#45;&gt;SW5</title>
<path fill="none" stroke="black" d="M318.84,-70.01C314,-86.6 304.24,-112.75 294.33,-136.5"/>
<polygon fill="black" stroke="black" points="291.07,-135.23 290.39,-145.8 297.51,-137.96 291.07,-135.23"/>
</g>
<!-- ES3&#45;&gt;SW2 -->
<g id="edge7" class="edge">
<title>ES3&#45;&gt;SW2</title>
<path fill="none" stroke="black" d="M254.18,-316.86C254.99,-324.33 255.48,-333.54 255.67,-343.16"/>
<polygon fill="black" stroke="black" points="252.17,-343.29 255.75,-353.26 259.17,-343.23 252.17,-343.29"/>
</g>
<!-- ES3&#45;&gt;SW5 -->
<g id="edge8" class="edge">
<title>ES3&#45;&gt;SW5</title>
<path fill="none" stroke="black" d="M246.64,-280.23C247.07,-272.32 248.16,-262.43 249.67,-252.18"/>
<polygon fill="black" stroke="black" points="253.13,-252.72 251.24,-242.3 246.22,-251.63 253.13,-252.72"/>
</g>
</g>
</svg>
