<?xml version="1.0" encoding="UTF-8" standalone="no"?>
<!DOCTYPE svg PUBLIC "-//W3C//DTD SVG 1.1//EN"
 "http://www.w3.org/Graphics/SVG/1.1/DTD/svg11.dtd">
<!-- Generated by graphviz version 2.44.1 (20200629.0800)
 -->
<!-- Pages: 1 -->
<svg width="1502pt" height="358pt"
 viewBox="0.00 0.00 1502.00 357.98" xmlns="http://www.w3.org/2000/svg" xmlns:xlink="http://www.w3.org/1999/xlink">
<g id="graph0" class="graph" transform="scale(1 1) rotate(0) translate(4 353.98)">
<polygon fill="white" stroke="transparent" points="-4,4 -4,-353.98 1498,-353.98 1498,4 -4,4"/>
<!-- SW0 -->
<g id="node1" class="node">
<title>SW0</title>
<ellipse fill="none" stroke="black" cx="837" cy="-297.99" rx="51.99" ry="51.99"/>
<text text-anchor="middle" x="837" y="-294.29" font-family="Times New Roman,serif" font-size="14.00">SW0 (SW)</text>
</g>
<!-- SW1 -->
<g id="node2" class="node">
<title>SW1</title>
<ellipse fill="none" stroke="black" cx="837" cy="-158" rx="51.99" ry="51.99"/>
<text text-anchor="middle" x="837" y="-154.3" font-family="Times New Roman,serif" font-size="14.00">SW1 (SW)</text>
</g>
<!-- SW0&#45;&gt;SW1 -->
<g id="edge9" class="edge">
<title>SW0&#45;&gt;SW1</title>
<path fill="none" stroke="black" d="M830.47,-246.39C830.26,-237.76 830.2,-228.72 830.29,-219.87"/>
<polygon fill="black" stroke="black" points="833.8,-219.65 830.47,-209.59 826.8,-219.53 833.8,-219.65"/>
</g>
<!-- ES0 -->
<g id="node3" class="node">
<title>ES0</title>
<polygon fill="none" stroke="black" points="0,-0.5 0,-69.5 380,-69.5 380,-0.5 0,-0.5"/>
<text text-anchor="middle" x="190" y="-54.3" font-family="Times New Roman,serif" font-size="14.00">ES0 (ES)</text>
<polyline fill="none" stroke="black" points="0,-46.5 380,-46.5 "/>
<text text-anchor="middle" x="54" y="-31.3" font-family="Times New Roman,serif" font-size="14.00">Task_FreeApp0</text>
<polyline fill="none" stroke="black" points="108,-23.5 108,-46.5 "/>
<text text-anchor="middle" x="176" y="-31.3" font-family="Times New Roman,serif" font-size="14.00">Task_CommApp0_1</text>
<polyline fill="none" stroke="black" points="244,-23.5 244,-46.5 "/>
<text text-anchor="middle" x="312" y="-31.3" font-family="Times New Roman,serif" font-size="14.00">Task_CommApp0_3</text>
<polyline fill="none" stroke="black" points="0,-23.5 380,-23.5 "/>
<text text-anchor="middle" x="95" y="-8.3" font-family="Times New Roman,serif" font-size="14.00">Task_CommApp1_1</text>
<polyline fill="none" stroke="black" points="190,-0.5 190,-23.5 "/>
<text text-anchor="middle" x="285" y="-8.3" font-family="Times New Roman,serif" font-size="14.00">Task_CommApp1_3</text>
</g>
<!-- SW0&#45;&gt;ES0 -->
<g id="edge10" class="edge">
<title>SW0&#45;&gt;ES0</title>
<path fill="none" stroke="black" d="M788.37,-278.84C679.65,-236.47 416.01,-130.29 277.79,-73.39"/>
<polygon fill="black" stroke="black" points="279.04,-70.12 268.46,-69.55 276.37,-76.59 279.04,-70.12"/>
</g>
<!-- ES1 -->
<g id="node4" class="node">
<title>ES1</title>
<polygon fill="none" stroke="black" points="398,-12 398,-58 806,-58 806,-12 398,-12"/>
<text text-anchor="middle" x="602" y="-42.8" font-family="Times New Roman,serif" font-size="14.00">ES1 (ES)</text>
<polyline fill="none" stroke="black" points="398,-35 806,-35 "/>
<text text-anchor="middle" x="466" y="-19.8" font-family="Times New Roman,serif" font-size="14.00">Task_CommApp0_0</text>
<polyline fill="none" stroke="black" points="534,-12 534,-35 "/>
<text text-anchor="middle" x="602" y="-19.8" font-family="Times New Roman,serif" font-size="14.00">Task_CommApp0_4</text>
<polyline fill="none" stroke="black" points="670,-12 670,-35 "/>
<text text-anchor="middle" x="738" y="-19.8" font-family="Times New Roman,serif" font-size="14.00">Task_CommApp0_5</text>
</g>
<!-- SW0&#45;&gt;ES1 -->
<g id="edge11" class="edge">
<title>SW0&#45;&gt;ES1</title>
<path fill="none" stroke="black" d="M800,-261.24C750.74,-209.51 665.45,-114.68 624.71,-66.23"/>
<polygon fill="black" stroke="black" points="627.19,-63.74 618.1,-58.3 621.81,-68.22 627.19,-63.74"/>
</g>
<!-- ES2 -->
<g id="node5" class="node">
<title>ES2</title>
<polygon fill="none" stroke="black" points="824,-12 824,-58 1204,-58 1204,-12 824,-12"/>
<text text-anchor="middle" x="1014" y="-42.8" font-family="Times New Roman,serif" font-size="14.00">ES2 (ES)</text>
<polyline fill="none" stroke="black" points="824,-35 1204,-35 "/>
<text text-anchor="middle" x="878" y="-19.8" font-family="Times New Roman,serif" font-size="14.00">Task_FreeApp1</text>
<polyline fill="none" stroke="black" points="932,-12 932,-35 "/>
<text text-anchor="middle" x="1000" y="-19.8" font-family="Times New Roman,serif" font-size="14.00">Task_CommApp0_2</text>
<polyline fill="none" stroke="black" points="1068,-12 1068,-35 "/>
<text text-anchor="middle" x="1136" y="-19.8" font-family="Times New Roman,serif" font-size="14.00">Task_CommApp1_0</text>
</g>
<!-- SW0&#45;&gt;ES2 -->
<g id="edge12" class="edge">
<title>SW0&#45;&gt;ES2</title>
<path fill="none" stroke="black" d="M860.56,-251.52C869.54,-238.19 879.73,-223.54 889,-209.99 923.19,-159.99 962.09,-101.25 987.53,-66.41"/>
<polygon fill="black" stroke="black" points="990.56,-68.2 993.7,-58.08 984.93,-64.04 990.56,-68.2"/>
</g>
<!-- ES3 -->
<g id="node6" class="node">
<title>ES3</title>
<polygon fill="none" stroke="black" points="1222,-12 1222,-58 1494,-58 1494,-12 1222,-12"/>
<text text-anchor="middle" x="1358" y="-42.8" font-family="Times New Roman,serif" font-size="14.00">ES3 (ES)</text>
<polyline fill="none" stroke="black" points="1222,-35 1494,-35 "/>
<text text-anchor="middle" x="1290" y="-19.8" font-family="Times New Roman,serif" font-size="14.00">Task_CommApp1_2</text>
<polyline fill="none" stroke="black" points="1358,-12 1358,-35 "/>
<text text-anchor="middle" x="1426" y="-19.8" font-family="Times New Roman,serif" font-size="14.00">Task_CommApp1_4</text>
</g>
<!-- SW0&#45;&gt;ES3 -->
<g id="edge13" class="edge">
<title>SW0&#45;&gt;ES3</title>
<path fill="none" stroke="black" d="M882.32,-272.2C977.29,-222.92 1196.61,-113.03 1300.96,-62.43"/>
<polygon fill="black" stroke="black" points="1302.61,-65.52 1310.08,-58.02 1299.56,-59.22 1302.61,-65.52"/>
</g>
<!-- SW1&#45;&gt;SW0 -->
<g id="edge14" class="edge">
<title>SW1&#45;&gt;SW0</title>
<path fill="none" stroke="black" d="M843.53,-209.59C843.74,-218.21 843.8,-227.25 843.71,-236.11"/>
<polygon fill="black" stroke="black" points="840.2,-236.33 843.53,-246.39 847.2,-236.45 840.2,-236.33"/>
</g>
<!-- SW1&#45;&gt;ES0 -->
<g id="edge15" class="edge">
<title>SW1&#45;&gt;ES0</title>
<path fill="none" stroke="black" d="M785.69,-148.1C697.54,-132.15 513.51,-97.89 373.16,-71.41"/>
<polygon fill="black" stroke="black" points="373.61,-67.94 363.13,-69.52 372.31,-74.81 373.61,-67.94"/>
</g>
<!-- SW1&#45;&gt;ES1 -->
<g id="edge16" class="edge">
<title>SW1&#45;&gt;ES1</title>
<path fill="none" stroke="black" d="M789.95,-135.5C748.82,-115.24 689.54,-84.79 648.56,-62.92"/>
<polygon fill="black" stroke="black" points="650.05,-59.75 639.58,-58.11 646.75,-65.92 650.05,-59.75"/>
</g>
<!-- SW1&#45;&gt;ES2 -->
<g id="edge17" class="edge">
<title>SW1&#45;&gt;ES2</title>
<path fill="none" stroke="black" d="M877.48,-125.21C904.47,-106.04 939.9,-81.88 967.96,-63.53"/>
<polygon fill="black" stroke="black" points="969.93,-66.42 976.41,-58.04 966.12,-60.55 969.93,-66.42"/>
</g>
<!-- SW1&#45;&gt;ES3 -->
<g id="edge18" class="edge">
<title>SW1&#45;&gt;ES3</title>
<path fill="none" stroke="black" d="M887.2,-144C957.94,-127.04 1090.62,-96.41 1204,-70 1217.27,-66.91 1231.23,-63.65 1245.1,-60.42"/>
<polygon fill="black" stroke="black" points="1246.22,-63.75 1255.17,-58.08 1244.64,-56.93 1246.22,-63.75"/>
</g>
<!-- ES0&#45;&gt;SW0 -->
<g id="edge1" class="edge">
<title>ES0&#45;&gt;SW0</title>
<path fill="none" stroke="black" d="M277.93,-69.57C412.76,-122.79 666.71,-225.3 780.01,-272.32"/>
<polygon fill="black" stroke="black" points="778.97,-275.68 789.55,-276.29 781.66,-269.22 778.97,-275.68"/>
</g>
<!-- ES0&#45;&gt;SW1 -->
<g id="edge2" class="edge">
<title>ES0&#45;&gt;SW1</title>
<path fill="none" stroke="black" d="M375.48,-69.54C510.68,-94.59 685.43,-127.39 776.24,-144.84"/>
<polygon fill="black" stroke="black" points="775.61,-148.28 786.09,-146.73 776.93,-141.4 775.61,-148.28"/>
</g>
<!-- ES1&#45;&gt;SW0 -->
<g id="edge3" class="edge">
<title>ES1&#45;&gt;SW0</title>
<path fill="none" stroke="black" d="M625.85,-58.08C666.73,-99.98 749.97,-191.9 798.92,-248.72"/>
<polygon fill="black" stroke="black" points="796.42,-251.18 805.59,-256.49 801.73,-246.62 796.42,-251.18"/>
</g>
<!-- ES1&#45;&gt;SW1 -->
<g id="edge4" class="edge">
<title>ES1&#45;&gt;SW1</title>
<path fill="none" stroke="black" d="M650.2,-58.06C688.96,-77.18 743.28,-105.04 783.4,-126.33"/>
<polygon fill="black" stroke="black" points="781.77,-129.43 792.24,-131.04 785.06,-123.25 781.77,-129.43"/>
</g>
<!-- ES2&#45;&gt;SW0 -->
<g id="edge5" class="edge">
<title>ES2&#45;&gt;SW0</title>
<path fill="none" stroke="black" d="M1005.33,-58.08C986.72,-91.23 944.09,-155.75 907,-209.99 897.77,-223.48 887.63,-238.06 877.93,-251.35"/>
<polygon fill="black" stroke="black" points="875.08,-249.31 871.96,-259.44 880.71,-253.47 875.08,-249.31"/>
</g>
<!-- ES2&#45;&gt;SW1 -->
<g id="edge6" class="edge">
<title>ES2&#45;&gt;SW1</title>
<path fill="none" stroke="black" d="M987.11,-58.04C961.35,-76.74 921.95,-103.83 889.93,-124.94"/>
<polygon fill="black" stroke="black" points="887.98,-122.03 881.54,-130.44 891.82,-127.88 887.98,-122.03"/>
</g>
<!-- ES3&#45;&gt;SW0 -->
<g id="edge7" class="edge">
<title>ES3&#45;&gt;SW0</title>
<path fill="none" stroke="black" d="M1317.74,-58.16C1225.51,-106.17 999.18,-219.59 893.26,-270.93"/>
<polygon fill="black" stroke="black" points="891.49,-267.9 884.01,-275.41 894.53,-274.2 891.49,-267.9"/>
</g>
<!-- ES3&#45;&gt;SW1 -->
<g id="edge8" class="edge">
<title>ES3&#45;&gt;SW1</title>
<path fill="none" stroke="black" d="M1272.87,-58.08C1256.04,-62.06 1238.49,-66.16 1222,-70 1107.71,-96.62 973.82,-127.53 897.76,-144.41"/>
<polygon fill="black" stroke="black" points="896.88,-141.02 887.87,-146.59 898.39,-147.85 896.88,-141.02"/>
</g>
</g>
</svg>
