<?xml version="1.0" encoding="UTF-8" standalone="no"?>
<!DOCTYPE svg PUBLIC "-//W3C//DTD SVG 1.1//EN"
 "http://www.w3.org/Graphics/SVG/1.1/DTD/svg11.dtd">
<!-- Generated by graphviz version 2.44.1 (20200629.0800)
 -->
<!-- Pages: 1 -->
<svg width="770pt" height="131pt"
 viewBox="0.00 0.00 769.78 131.00" xmlns="http://www.w3.org/2000/svg" xmlns:xlink="http://www.w3.org/1999/xlink">
<g id="graph0" class="graph" transform="scale(1 1) rotate(0) translate(4 127)">
<polygon fill="white" stroke="transparent" points="-4,4 -4,-127 765.78,-127 765.78,4 -4,4"/>
<!-- Task_CommApp1_0 -->
<g id="node1" class="node">
<title>Task_CommApp1_0</title>
<ellipse fill="none" stroke="black" cx="88.39" cy="-105" rx="88.28" ry="18"/>
<text text-anchor="middle" x="88.39" y="-101.3" font-family="Times New Roman,serif" font-size="14.00">Task_CommApp1_0</text>
</g>
<!-- Task_CommApp1_3 -->
<g id="node4" class="node">
<title>Task_CommApp1_3</title>
<ellipse fill="none" stroke="black" cx="88.39" cy="-18" rx="88.28" ry="18"/>
<text text-anchor="middle" x="88.39" y="-14.3" font-family="Times New Roman,serif" font-size="14.00">Task_CommApp1_3</text>
</g>
<!-- Task_CommApp1_0&#45;&gt;Task_CommApp1_3 -->
<g id="edge1" class="edge">
<title>Task_CommApp1_0&#45;&gt;Task_CommApp1_3</title>
<path fill="none" stroke="black" d="M88.39,-86.8C88.39,-75.16 88.39,-59.55 88.39,-46.24"/>
<polygon fill="black" stroke="black" points="91.89,-46.18 88.39,-36.18 84.89,-46.18 91.89,-46.18"/>
<text text-anchor="middle" x="211.89" y="-57.8" font-family="Times New Roman,serif" font-size="14.00"> Stream_CommApp1_Task_CommApp1_0</text>
</g>
<!-- Task_CommApp1_1 -->
<g id="node2" class="node">
<title>Task_CommApp1_1</title>
<ellipse fill="none" stroke="black" cx="283.39" cy="-105" rx="88.28" ry="18"/>
<text text-anchor="middle" x="283.39" y="-101.3" font-family="Times New Roman,serif" font-size="14.00">Task_CommApp1_1</text>
</g>
<!-- Task_CommApp1_2 -->
<g id="node3" class="node">
<title>Task_CommApp1_2</title>
<ellipse fill="none" stroke="black" cx="478.39" cy="-105" rx="88.28" ry="18"/>
<text text-anchor="middle" x="478.39" y="-101.3" font-family="Times New Roman,serif" font-size="14.00">Task_CommApp1_2</text>
</g>
<!-- Task_CommApp1_4 -->
<g id="node5" class="node">
<title>Task_CommApp1_4</title>
<ellipse fill="none" stroke="black" cx="673.39" cy="-105" rx="88.28" ry="18"/>
<text text-anchor="middle" x="673.39" y="-101.3" font-family="Times New Roman,serif" font-size="14.00">Task_CommApp1_4</text>
</g>
</g>
</svg>
