<?xml version="1.0" encoding="UTF-8" standalone="no"?>
<!DOCTYPE svg PUBLIC "-//W3C//DTD SVG 1.1//EN"
 "http://www.w3.org/Graphics/SVG/1.1/DTD/svg11.dtd">
<!-- Generated by graphviz version 2.44.1 (20200629.0800)
 -->
<!-- Pages: 1 -->
<svg width="351pt" height="325pt"
 viewBox="0.00 0.00 351.00 324.98" xmlns="http://www.w3.org/2000/svg" xmlns:xlink="http://www.w3.org/1999/xlink">
<g id="graph0" class="graph" transform="scale(1 1) rotate(0) translate(4 320.98)">
<polygon fill="white" stroke="transparent" points="-4,4 -4,-320.98 347,-320.98 347,4 -4,4"/>
<!-- SW0 -->
<g id="node1" class="node">
<title>SW0</title>
<ellipse fill="none" stroke="black" cx="165.5" cy="-264.99" rx="51.99" ry="51.99"/>
<text text-anchor="middle" x="165.5" y="-261.29" font-family="Times New Roman,serif" font-size="14.00">SW0 (SW)</text>
</g>
<!-- SW1 -->
<g id="node2" class="node">
<title>SW1</title>
<ellipse fill="none" stroke="black" cx="165.5" cy="-125" rx="51.99" ry="51.99"/>
<text text-anchor="middle" x="165.5" y="-121.3" font-family="Times New Roman,serif" font-size="14.00">SW1 (SW)</text>
</g>
<!-- SW0&#45;&gt;SW1 -->
<g id="edge9" class="edge">
<title>SW0&#45;&gt;SW1</title>
<path fill="none" stroke="black" d="M158.97,-213.39C158.76,-204.76 158.7,-195.72 158.79,-186.87"/>
<polygon fill="black" stroke="black" points="162.3,-186.65 158.97,-176.59 155.3,-186.53 162.3,-186.65"/>
</g>
<!-- ES0 -->
<g id="node3" class="node">
<title>ES0</title>
<polygon fill="none" stroke="black" points="0,-0.5 0,-36.5 69,-36.5 69,-0.5 0,-0.5"/>
<text text-anchor="middle" x="34.5" y="-14.8" font-family="Times New Roman,serif" font-size="14.00">ES0 (ES)</text>
</g>
<!-- SW0&#45;&gt;ES0 -->
<g id="edge10" class="edge">
<title>SW0&#45;&gt;ES0</title>
<path fill="none" stroke="black" d="M125.24,-231.33C110.48,-215.81 94.78,-196.43 83.5,-176.99 58.81,-134.42 41.45,-79.46 35.08,-47"/>
<polygon fill="black" stroke="black" points="38.49,-46.17 33.35,-36.9 31.59,-47.35 38.49,-46.17"/>
</g>
<!-- ES1 -->
<g id="node4" class="node">
<title>ES1</title>
<polygon fill="none" stroke="black" points="94,-0.5 94,-36.5 163,-36.5 163,-0.5 94,-0.5"/>
<text text-anchor="middle" x="128.5" y="-14.8" font-family="Times New Roman,serif" font-size="14.00">ES1 (ES)</text>
</g>
<!-- SW0&#45;&gt;ES1 -->
<g id="edge11" class="edge">
<title>SW0&#45;&gt;ES1</title>
<path fill="none" stroke="black" d="M126.28,-230.25C113.73,-215.12 101.61,-196.34 95.5,-176.99 81.59,-132.92 85.83,-118.19 95.5,-73 97.5,-63.64 101.27,-53.94 105.68,-45.42"/>
<polygon fill="black" stroke="black" points="108.74,-47.11 110.67,-36.69 102.67,-43.64 108.74,-47.11"/>
</g>
<!-- ES2 -->
<g id="node5" class="node">
<title>ES2</title>
<polygon fill="none" stroke="black" points="185,-0.5 185,-36.5 254,-36.5 254,-0.5 185,-0.5"/>
<text text-anchor="middle" x="219.5" y="-14.8" font-family="Times New Roman,serif" font-size="14.00">ES2 (ES)</text>
</g>
<!-- SW0&#45;&gt;ES2 -->
<g id="edge12" class="edge">
<title>SW0&#45;&gt;ES2</title>
<path fill="none" stroke="black" d="M194.27,-221.66C203.48,-208.27 212.5,-192.82 217.5,-176.99 231.42,-132.91 223.92,-78.44 219.8,-46.48"/>
<polygon fill="black" stroke="black" points="223.27,-46.04 218.56,-36.55 216.32,-46.9 223.27,-46.04"/>
</g>
<!-- ES3 -->
<g id="node6" class="node">
<title>ES3</title>
<polygon fill="none" stroke="black" points="274,-0.5 274,-36.5 343,-36.5 343,-0.5 274,-0.5"/>
<text text-anchor="middle" x="308.5" y="-14.8" font-family="Times New Roman,serif" font-size="14.00">ES3 (ES)</text>
</g>
<!-- SW0&#45;&gt;ES3 -->
<g id="edge13" class="edge">
<title>SW0&#45;&gt;ES3</title>
<path fill="none" stroke="black" d="M201.44,-226.99C216,-212.62 231.98,-195.23 243.5,-176.99 269.94,-135.15 286,-79.16 296.44,-46.45"/>
<polygon fill="black" stroke="black" points="299.85,-47.28 299.64,-36.69 293.2,-45.1 299.85,-47.28"/>
</g>
<!-- SW1&#45;&gt;SW0 -->
<g id="edge14" class="edge">
<title>SW1&#45;&gt;SW0</title>
<path fill="none" stroke="black" d="M172.03,-176.59C172.24,-185.21 172.3,-194.25 172.21,-203.11"/>
<polygon fill="black" stroke="black" points="168.7,-203.33 172.03,-213.39 175.7,-203.45 168.7,-203.33"/>
</g>
<!-- SW1&#45;&gt;ES0 -->
<g id="edge15" class="edge">
<title>SW1&#45;&gt;ES0</title>
<path fill="none" stroke="black" d="M122.89,-94.89C101.59,-78.65 76.68,-58.68 58.66,-43.38"/>
<polygon fill="black" stroke="black" points="60.77,-40.57 50.9,-36.7 56.2,-45.88 60.77,-40.57"/>
</g>
<!-- SW1&#45;&gt;ES1 -->
<g id="edge16" class="edge">
<title>SW1&#45;&gt;ES1</title>
<path fill="none" stroke="black" d="M142.57,-78.16C138.56,-67.29 134.82,-56.04 132.02,-46.34"/>
<polygon fill="black" stroke="black" points="135.35,-45.26 129.38,-36.5 128.59,-47.07 135.35,-45.26"/>
</g>
<!-- SW1&#45;&gt;ES2 -->
<g id="edge17" class="edge">
<title>SW1&#45;&gt;ES2</title>
<path fill="none" stroke="black" d="M183.56,-76.03C188.87,-65.57 194.66,-54.87 200.05,-45.64"/>
<polygon fill="black" stroke="black" points="203.12,-47.34 205.29,-36.96 197.12,-43.72 203.12,-47.34"/>
</g>
<!-- SW1&#45;&gt;ES3 -->
<g id="edge18" class="edge">
<title>SW1&#45;&gt;ES3</title>
<path fill="none" stroke="black" d="M204.8,-90.65C225.55,-74.97 250.8,-56.66 271.25,-42.55"/>
<polygon fill="black" stroke="black" points="273.41,-45.31 279.69,-36.78 269.46,-39.53 273.41,-45.31"/>
</g>
<!-- ES0&#45;&gt;SW0 -->
<g id="edge1" class="edge">
<title>ES0&#45;&gt;SW0</title>
<path fill="none" stroke="black" d="M44.22,-36.9C55.62,-66.88 74.02,-129.6 101.5,-176.99 109.05,-190.02 118.6,-203.01 128.03,-214.84"/>
<polygon fill="black" stroke="black" points="125.5,-217.27 134.52,-222.83 130.93,-212.86 125.5,-217.27"/>
</g>
<!-- ES0&#45;&gt;SW1 -->
<g id="edge2" class="edge">
<title>ES0&#45;&gt;SW1</title>
<path fill="none" stroke="black" d="M61.31,-36.77C78.24,-49.19 100.42,-66.5 120.01,-82.42"/>
<polygon fill="black" stroke="black" points="117.97,-85.28 127.93,-88.91 122.41,-79.87 117.97,-85.28"/>
</g>
<!-- ES1&#45;&gt;SW0 -->
<g id="edge3" class="edge">
<title>ES1&#45;&gt;SW0</title>
<path fill="none" stroke="black" d="M126.42,-36.69C122.23,-46.88 116.23,-60.26 113.5,-73 103.83,-118.19 99.59,-132.92 113.5,-176.99 117.48,-189.61 124.02,-201.98 131.17,-213.26"/>
<polygon fill="black" stroke="black" points="128.29,-215.25 136.73,-221.66 134.13,-211.39 128.29,-215.25"/>
</g>
<!-- ES1&#45;&gt;SW1 -->
<g id="edge4" class="edge">
<title>ES1&#45;&gt;SW1</title>
<path fill="none" stroke="black" d="M139.72,-36.64C143.36,-44.48 147.35,-54.29 151.12,-64.48"/>
<polygon fill="black" stroke="black" points="147.82,-65.67 154.5,-73.89 154.41,-63.3 147.82,-65.67"/>
</g>
<!-- ES2&#45;&gt;SW0 -->
<g id="edge5" class="edge">
<title>ES2&#45;&gt;SW0</title>
<path fill="none" stroke="black" d="M229.43,-36.55C239.95,-65.99 250.99,-127.92 235.5,-176.99 230.44,-193.01 221.26,-208.65 211.12,-222.14"/>
<polygon fill="black" stroke="black" points="208.17,-220.24 204.72,-230.25 213.66,-224.58 208.17,-220.24"/>
</g>
<!-- ES2&#45;&gt;SW1 -->
<g id="edge6" class="edge">
<title>ES2&#45;&gt;SW1</title>
<path fill="none" stroke="black" d="M215.79,-36.67C211.75,-46.57 205.55,-59.6 198.83,-72.57"/>
<polygon fill="black" stroke="black" points="195.69,-71.02 194.11,-81.49 201.88,-74.29 195.69,-71.02"/>
</g>
<!-- ES3&#45;&gt;SW0 -->
<g id="edge7" class="edge">
<title>ES3&#45;&gt;SW0</title>
<path fill="none" stroke="black" d="M310.4,-36.69C307.36,-66.88 290.8,-130.63 261.5,-176.99 249.54,-195.92 232.78,-213.94 216.55,-228.61"/>
<polygon fill="black" stroke="black" points="213.86,-226.32 208.64,-235.54 218.47,-231.58 213.86,-226.32"/>
</g>
<!-- ES3&#45;&gt;SW1 -->
<g id="edge8" class="edge">
<title>ES3&#45;&gt;SW1</title>
<path fill="none" stroke="black" d="M290.2,-36.63C271.83,-51.23 242.95,-72.63 217.55,-90.59"/>
<polygon fill="black" stroke="black" points="215.26,-87.93 209.09,-96.54 219.29,-93.65 215.26,-87.93"/>
</g>
</g>
</svg>
