<?xml version="1.0" encoding="UTF-8" standalone="no"?>
<!DOCTYPE svg PUBLIC "-//W3C//DTD SVG 1.1//EN"
 "http://www.w3.org/Graphics/SVG/1.1/DTD/svg11.dtd">
<!-- Generated by graphviz version 2.44.1 (20200629.0800)
 -->
<!-- Pages: 1 -->
<svg width="2062pt" height="188pt"
 viewBox="0.00 0.00 2061.59 188.00" xmlns="http://www.w3.org/2000/svg" xmlns:xlink="http://www.w3.org/1999/xlink">
<g id="graph0" class="graph" transform="scale(1 1) rotate(0) translate(4 184)">
<polygon fill="white" stroke="transparent" points="-4,4 -4,-184 2057.59,-184 2057.59,4 -4,4"/>
<!-- Task_FreeApp0 -->
<g id="node1" class="node">
<title>Task_FreeApp0</title>
<ellipse fill="none" stroke="black" cx="70.19" cy="-162" rx="70.39" ry="18"/>
<text text-anchor="middle" x="70.19" y="-158.3" font-family="Times New Roman,serif" font-size="14.00">Task_FreeApp0</text>
</g>
<!-- Task_FreeApp1 -->
<g id="node2" class="node">
<title>Task_FreeApp1</title>
<ellipse fill="none" stroke="black" cx="228.19" cy="-162" rx="70.39" ry="18"/>
<text text-anchor="middle" x="228.19" y="-158.3" font-family="Times New Roman,serif" font-size="14.00">Task_FreeApp1</text>
</g>
<!-- Task_CommApp0_0 -->
<g id="node3" class="node">
<title>Task_CommApp0_0</title>
<ellipse fill="none" stroke="black" cx="405.19" cy="-162" rx="88.28" ry="18"/>
<text text-anchor="middle" x="405.19" y="-158.3" font-family="Times New Roman,serif" font-size="14.00">Task_CommApp0_0</text>
</g>
<!-- Task_CommApp0_5 -->
<g id="node8" class="node">
<title>Task_CommApp0_5</title>
<ellipse fill="none" stroke="black" cx="405.19" cy="-90" rx="88.28" ry="18"/>
<text text-anchor="middle" x="405.19" y="-86.3" font-family="Times New Roman,serif" font-size="14.00">Task_CommApp0_5</text>
</g>
<!-- Task_CommApp0_0&#45;&gt;Task_CommApp0_5 -->
<g id="edge1" class="edge">
<title>Task_CommApp0_0&#45;&gt;Task_CommApp0_5</title>
<path fill="none" stroke="black" d="M405.19,-143.7C405.19,-135.98 405.19,-126.71 405.19,-118.11"/>
<polygon fill="black" stroke="black" points="408.69,-118.1 405.19,-108.1 401.69,-118.1 408.69,-118.1"/>
</g>
<!-- Task_CommApp0_1 -->
<g id="node4" class="node">
<title>Task_CommApp0_1</title>
<ellipse fill="none" stroke="black" cx="600.19" cy="-162" rx="88.28" ry="18"/>
<text text-anchor="middle" x="600.19" y="-158.3" font-family="Times New Roman,serif" font-size="14.00">Task_CommApp0_1</text>
</g>
<!-- Task_CommApp0_2 -->
<g id="node5" class="node">
<title>Task_CommApp0_2</title>
<ellipse fill="none" stroke="black" cx="795.19" cy="-162" rx="88.28" ry="18"/>
<text text-anchor="middle" x="795.19" y="-158.3" font-family="Times New Roman,serif" font-size="14.00">Task_CommApp0_2</text>
</g>
<!-- Task_CommApp0_3 -->
<g id="node6" class="node">
<title>Task_CommApp0_3</title>
<ellipse fill="none" stroke="black" cx="990.19" cy="-162" rx="88.28" ry="18"/>
<text text-anchor="middle" x="990.19" y="-158.3" font-family="Times New Roman,serif" font-size="14.00">Task_CommApp0_3</text>
</g>
<!-- Task_CommApp0_4 -->
<g id="node7" class="node">
<title>Task_CommApp0_4</title>
<ellipse fill="none" stroke="black" cx="1185.19" cy="-162" rx="88.28" ry="18"/>
<text text-anchor="middle" x="1185.19" y="-158.3" font-family="Times New Roman,serif" font-size="14.00">Task_CommApp0_4</text>
</g>
<!-- Task_CommApp1_0 -->
<g id="node9" class="node">
<title>Task_CommApp1_0</title>
<ellipse fill="none" stroke="black" cx="1380.19" cy="-162" rx="88.28" ry="18"/>
<text text-anchor="middle" x="1380.19" y="-158.3" font-family="Times New Roman,serif" font-size="14.00">Task_CommApp1_0</text>
</g>
<!-- Stream_CommApp1_Task_CommApp1_0 -->
<g id="node14" class="node">
<title>Stream_CommApp1_Task_CommApp1_0</title>
<ellipse fill="none" stroke="black" cx="1380.19" cy="-90" rx="168.97" ry="18"/>
<text text-anchor="middle" x="1380.19" y="-86.3" font-family="Times New Roman,serif" font-size="14.00">Stream_CommApp1_Task_CommApp1_0</text>
</g>
<!-- Task_CommApp1_0&#45;&gt;Stream_CommApp1_Task_CommApp1_0 -->
<g id="edge2" class="edge">
<title>Task_CommApp1_0&#45;&gt;Stream_CommApp1_Task_CommApp1_0</title>
<path fill="none" stroke="black" d="M1380.19,-143.7C1380.19,-135.98 1380.19,-126.71 1380.19,-118.11"/>
<polygon fill="black" stroke="black" points="1383.69,-118.1 1380.19,-108.1 1376.69,-118.1 1383.69,-118.1"/>
</g>
<!-- Task_CommApp1_1 -->
<g id="node10" class="node">
<title>Task_CommApp1_1</title>
<ellipse fill="none" stroke="black" cx="1575.19" cy="-162" rx="88.28" ry="18"/>
<text text-anchor="middle" x="1575.19" y="-158.3" font-family="Times New Roman,serif" font-size="14.00">Task_CommApp1_1</text>
</g>
<!-- Task_CommApp1_2 -->
<g id="node11" class="node">
<title>Task_CommApp1_2</title>
<ellipse fill="none" stroke="black" cx="1770.19" cy="-162" rx="88.28" ry="18"/>
<text text-anchor="middle" x="1770.19" y="-158.3" font-family="Times New Roman,serif" font-size="14.00">Task_CommApp1_2</text>
</g>
<!-- Task_CommApp1_3 -->
<g id="node12" class="node">
<title>Task_CommApp1_3</title>
<ellipse fill="none" stroke="black" cx="1380.19" cy="-18" rx="88.28" ry="18"/>
<text text-anchor="middle" x="1380.19" y="-14.3" font-family="Times New Roman,serif" font-size="14.00">Task_CommApp1_3</text>
</g>
<!-- Task_CommApp1_4 -->
<g id="node13" class="node">
<title>Task_CommApp1_4</title>
<ellipse fill="none" stroke="black" cx="1965.19" cy="-162" rx="88.28" ry="18"/>
<text text-anchor="middle" x="1965.19" y="-158.3" font-family="Times New Roman,serif" font-size="14.00">Task_CommApp1_4</text>
</g>
<!-- Stream_CommApp1_Task_CommApp1_0&#45;&gt;Task_CommApp1_3 -->
<g id="edge3" class="edge">
<title>Stream_CommApp1_Task_CommApp1_0&#45;&gt;Task_CommApp1_3</title>
<path fill="none" stroke="black" d="M1380.19,-71.7C1380.19,-63.98 1380.19,-54.71 1380.19,-46.11"/>
<polygon fill="black" stroke="black" points="1383.69,-46.1 1380.19,-36.1 1376.69,-46.1 1383.69,-46.1"/>
</g>
</g>
</svg>
